name C:\Users\u0101727\Documents\MyRepositories\upper-imu-dc\Results\main_tracking\Case_16\kinematics.mot
datacolumns 10
datarows 18
range 7.88000000 8.05000000
endheader 
time	clav_prot	clav_elev	scapula_abduction	scapula_elevation	scapula_upward_rot	scapula_winging	plane_elv	shoulder_elv	axial_rot	
          7.88000000	        -43.49651018	         -3.95708311	        -19.79496709	        -11.55644662	         51.37273519	         -6.83150247	         32.72404007	         80.49578319	        -13.03351340	
          7.89000000	        -43.54417656	         -4.02293428	        -20.32539726	        -11.56790066	         50.74862156	         -6.77087101	         32.83710928	         80.22604417	        -13.01461739	
          7.90000000	        -43.59466864	         -4.08681002	        -20.85264005	        -11.57667469	         50.13370239	         -6.71136437	         32.94865371	         79.92930702	        -12.95864844	
          7.91000000	        -43.64898726	         -4.14993437	        -21.37980856	        -11.58362745	         49.52550905	         -6.65267872	         33.06000152	         79.60873345	        -12.84394643	
          7.92000000	        -43.70761108	         -4.21355769	        -21.90824913	        -11.58966290	         48.92283671	         -6.59429117	         33.17092430	         79.26730941	        -12.65510024	
          7.93000000	        -43.77036141	         -4.27860235	        -22.43743209	        -11.59548851	         48.32573111	         -6.53563038	         33.27955867	         78.90773654	        -12.38353455	
          7.94000000	        -43.83648544	         -4.34541967	        -22.96531402	        -11.60144864	         47.73526074	         -6.47627056	         33.38278488	         78.53237537	        -12.02687266	
          7.95000000	        -43.90484979	         -4.41366790	        -23.48883575	        -11.60744658	         47.15329354	         -6.41610330	         33.47681255	         78.14313336	        -11.58808533	
          7.96000000	        -43.97417312	         -4.48224272	        -24.00440415	        -11.61290823	         46.58235240	         -6.35550147	         33.55783347	         77.74124969	        -11.07485249	
          7.97000000	        -44.04327895	         -4.54920379	        -24.50837570	        -11.61674335	         46.02550051	         -6.29549805	         33.62271276	         77.32700845	        -10.49900558	
          7.98000000	        -44.11135861	         -4.61171242	        -24.99757671	        -11.61730848	         45.48618556	         -6.23795820	         33.66967887	         76.89947584	         -9.87578810	
          7.99000000	        -44.17817440	         -4.66608134	        -25.46973952	        -11.61243843	         44.96803880	         -6.18564094	         33.69883319	         76.45639935	         -9.22295572	
          8.00000000	        -44.24413461	         -4.70803738	        -25.92373394	        -11.59961393	         44.47463244	         -6.14204686	         33.71228344	         75.99440544	         -8.55974684	
          8.01000000	        -44.31019141	         -4.73321144	        -26.35950725	        -11.57627545	         44.00921633	         -6.11101546	         33.71377012	         75.50954268	         -7.90580425	
          8.02000000	        -44.37755835	         -4.73781867	        -26.77773717	        -11.54025694	         43.57443574	         -6.09609429	         33.70776951	         74.99815013	         -7.27999736	
          8.03000000	        -44.44732093	         -4.71938531	        -27.17931150	        -11.49024518	         43.17206319	         -6.09981780	         33.69828076	         74.45785851	         -6.69908982	
          8.04000000	        -44.52013905	         -4.67723522	        -27.56497519	        -11.42607317	         42.80275267	         -6.12319350	         33.68781006	         73.88837934	         -6.17638884	
          8.05000000	        -44.59614441	         -4.61257782	        -27.93527868	        -11.34874718	         42.46587637	         -6.16556447	         33.67689014	         73.29182597	         -5.72056542	
